<svg width="159" height="78" viewBox="0 0 159 78" fill="none" xmlns="http://www.w3.org/2000/svg">
<path d="M58.49 30.9299C54.7 30.9299 52.22 29.9599 51.41 26.0599H41.65C41.65 27.6199 42.47 34.2599 48.41 37.0399C51.74 38.5999 55.45 38.8799 58.34 38.8799L64.3 28.9599C63.89 29.5199 63.06 30.9399 58.49 30.9399M70.63 18.4099L64.38 28.7999C65.46 26.5799 63.72 25.3999 62.63 25.0699C60.8 24.3699 55.07 23.2399 51.35 22.1499C49.49 21.6099 48 20.7899 47.27 20.2599C47.03 20.0799 43.04 17.4799 43.04 12.0599C43.04 9.7499 44.19 0.399902 58.54 0.399902C70.33 0.399902 73.53 7.2899 73.81 11.4199H64.16C63.82 9.9199 62.46 8.1499 58.33 8.1299C57.38 8.1299 53.55 8.2299 53.18 10.7099C53.02 11.7599 53.48 12.4799 54.08 12.9299C54.67 13.3799 55.73 13.6199 56.12 13.7399C57.86 14.2599 61.68 14.9999 63.56 15.4599C66.84 16.2699 69.18 17.2599 70.64 18.4099M117.35 1.0199H95.19V9.0499H117.35V1.0199ZM115.47 15.9299H95.19V23.9499H115.47V15.9299ZM95.19 30.8499H117.35V38.8799H95.19V30.8499Z" fill="white"/>
<path d="M86.32 23.95H77.35L86.32 9.03002V23.95ZM95.19 1.02002H81.07L70.62 18.41L64.38 28.8L64.29 28.95L58.33 38.87H68.39L73.22 30.84H86.33V38.87H95.19V1.02002Z" fill="white"/>
<path d="M158.07 0.399902H120.07V15.3999H158.07V0.399902Z" fill="white"/>
<path d="M158.07 33.8701H120.07V38.8701H158.07V33.8701Z" fill="white"/>
<path d="M158.07 19.6401H120.07V29.6401H158.07V19.6401Z" fill="white"/>
<path d="M38.93 0.399902H0.929993V15.3999H38.93V0.399902Z" fill="white"/>
<path d="M38.93 33.8701H0.929993V38.8701H38.93V33.8701Z" fill="white"/>
<path d="M38.93 19.6401H0.929993V29.6401H38.93V19.6401Z" fill="white"/>
<path d="M0.929993 45.5601V50.7501H2.20999C2.25999 49.6201 2.47999 48.7801 2.86999 48.2301C3.24999 47.6901 3.69999 47.3501 4.19999 47.2401C4.69999 47.1201 5.33999 47.0601 6.09999 47.0601H8.03999V60.4601C8.03999 61.2501 7.87999 61.8101 7.55999 62.1301C7.22999 62.4501 6.50999 62.6201 5.38999 62.6201V63.8601H14.56V62.6201C13.8 62.6201 13.22 62.5401 12.82 62.3801C12.42 62.2101 12.18 61.9901 12.07 61.7001C11.96 61.4101 11.91 61.0001 11.91 60.4601V47.0601H14.23C14.81 47.0601 15.31 47.1201 15.76 47.2501C16.2 47.3701 16.61 47.7101 17 48.2501C17.38 48.7901 17.63 49.6301 17.75 50.7601H19.03V45.5701H0.929993V45.5601Z" fill="white"/>
<path d="M34.44 60.9C33.9 61.55 33.35 61.96 32.79 62.12C32.23 62.28 31.64 62.35 31.01 62.35H29.54C28.88 62.35 28.38 62.3 28.03 62.2C27.67 62.1 27.42 61.94 27.26 61.72C27.1 61.5 27 61.22 26.97 60.89C26.94 60.56 26.92 60.03 26.92 59.31V55.01H28.81C29.45 55.01 29.92 55.06 30.23 55.17C30.54 55.28 30.77 55.49 30.91 55.81C31.06 56.13 31.14 56.63 31.18 57.3H32.42V51.22H31.13C31.09 51.89 31 52.38 30.87 52.7C30.75 53.02 30.52 53.23 30.21 53.34C29.89 53.45 29.42 53.51 28.78 53.51H26.92V47.04H30.34C31.25 47.04 31.93 47.09 32.38 47.19C32.83 47.29 33.25 47.57 33.6 48.03C33.97 48.48 34.29 49.24 34.57 50.29H35.81L35.57 45.54H20.4V46.78C21.2 46.78 21.79 46.87 22.18 47.03C22.56 47.2 22.8 47.42 22.91 47.72C23.01 48.01 23.06 48.42 23.06 48.94V60.43C23.06 61.22 22.9 61.78 22.57 62.11C22.25 62.43 21.52 62.59 20.4 62.59V63.83H36.69L36.84 57.82H35.58C35.36 59.21 34.98 60.23 34.44 60.89" fill="white"/>
<path d="M69.45 62.45C69.12 62.55 68.58 62.6 67.86 62.6V63.84H76.47V62.6C75.87 62.6 75.4 62.5 75.06 62.31C74.73 62.12 74.47 61.84 74.28 61.49C74.09 61.13 73.8 60.45 73.4 59.45L67.83 45.21H66.55L61.28 59.01C60.91 59.97 60.56 60.71 60.25 61.24C59.93 61.76 59.59 62.13 59.25 62.31C59.06 62.41 58.86 62.48 58.63 62.52C58.28 62.47 57.98 62.39 57.73 62.28C57.29 62.09 56.86 61.77 56.43 61.33C56 60.88 55.46 60.21 54.79 59.33L50.34 53.5L53.6 49.75C54.31 48.93 54.85 48.34 55.22 47.98C55.6 47.62 56.03 47.33 56.52 47.11C57.01 46.88 57.6 46.78 58.3 46.78V45.54H50.74V46.78H51.37C51.99 46.78 52.41 46.84 52.64 46.97C52.87 47.1 52.97 47.32 52.97 47.61C52.97 47.82 52.93 47.99 52.85 48.13C52.77 48.27 52.6 48.51 52.34 48.85L49.44 52.25L46.89 48.96C46.34 48.19 46.07 47.7 46.07 47.5C46.07 47.17 46.2 46.97 46.45 46.89C46.71 46.81 47.09 46.78 47.6 46.78H48.3V45.54H38.32V46.78C39.04 46.78 39.6 46.84 40 46.98C40.39 47.12 40.74 47.34 41.04 47.64C41.34 47.95 41.82 48.54 42.49 49.4L46.9 55.2L43.65 59.02C42.73 60.09 41.99 60.87 41.42 61.36C40.86 61.85 40.34 62.17 39.89 62.33C39.44 62.48 38.92 62.57 38.33 62.58V63.82H46.37V62.58C45.84 62.58 45.42 62.56 45.11 62.52C44.8 62.49 44.53 62.38 44.31 62.22C44.09 62.05 43.98 61.81 43.98 61.47C43.98 61.06 44.31 60.49 44.98 59.73L47.82 56.41L50.78 60.31C51.26 60.95 51.49 61.37 51.49 61.57C51.49 61.99 51.3 62.27 50.93 62.39C50.56 62.51 50.14 62.57 49.67 62.57H48.82V63.81H64.27V62.57C63.71 62.57 63.22 62.5 62.8 62.36C62.38 62.22 62.18 61.87 62.18 61.33C62.18 61.03 62.31 60.55 62.56 59.89L63 58.7H68.93L69.79 60.86C69.9 61.14 69.95 61.41 69.95 61.69C69.95 62.08 69.79 62.32 69.45 62.42M63.51 57.41L65.91 51.04L68.43 57.41H63.51Z" fill="white"/>
<path d="M88.85 61.9398C89.33 61.3698 89.69 60.7798 89.93 60.1598C90.17 59.5398 90.28 58.9498 90.28 58.3998C90.28 57.4098 90.02 56.5698 89.52 55.8698C89 55.1698 88.37 54.5898 87.63 54.1298C86.88 53.6698 85.85 53.1298 84.53 52.4998C83.44 51.9998 82.65 51.5998 82.16 51.3298C81.67 51.0598 81.27 50.7298 80.98 50.3498C80.68 49.9598 80.53 49.5198 80.53 48.9998C80.53 48.3398 80.77 47.7998 81.25 47.3898C81.73 46.9698 82.36 46.7698 83.15 46.7698C85.33 46.7698 86.86 48.1298 87.74 50.8498H88.98V45.8598H87.74C87.61 46.5298 87.46 47.0598 87.31 47.4298C86.75 46.7698 86.1 46.2598 85.34 45.8798C84.58 45.5098 83.79 45.3198 82.95 45.3198C81.85 45.3198 80.9 45.5698 80.06 46.0598C79.23 46.5598 78.6 47.1998 78.17 47.9798C77.74 48.7598 77.52 49.5498 77.52 50.3498C77.52 50.7998 77.58 51.2398 77.73 51.6798C77.86 52.1198 78.11 52.5798 78.47 53.0698C78.82 53.5598 79.35 54.0598 80.04 54.5798C80.73 55.0898 81.62 55.6098 82.7 56.1198C83.41 56.4298 84.03 56.7398 84.58 57.0298C85.13 57.3198 85.56 57.5798 85.88 57.8398C86.19 58.0898 86.44 58.3798 86.61 58.6898C86.77 59.0098 86.86 59.3698 86.86 59.7998C86.86 60.5498 86.59 61.1698 86.04 61.6598C85.5 62.1598 84.78 62.3998 83.88 62.3998C82.85 62.3998 81.98 62.1198 81.27 61.5598C80.56 60.9998 80.01 60.3298 79.63 59.5598C79.24 58.7898 78.94 57.9598 78.72 57.0798H77.5V63.1998H78.72C78.8 62.6398 78.98 62.0498 79.26 61.3898C79.91 62.1998 80.71 62.8198 81.64 63.2398C82.57 63.6498 83.52 63.8598 84.47 63.8598C85.42 63.8598 86.27 63.6798 87.01 63.3198C87.74 62.9698 88.34 62.4998 88.82 61.9398" fill="white"/>
<path d="M116.01 61.49C115.82 61.13 115.53 60.45 115.12 59.45L109.55 45.21H108.27L103 59.01C102.63 59.97 102.29 60.71 101.97 61.24C101.65 61.76 101.31 62.13 100.96 62.31C100.61 62.5 100.18 62.59 99.68 62.59V63.83H105.97V62.59C105.41 62.59 104.93 62.52 104.51 62.38C104.09 62.24 103.88 61.89 103.88 61.35C103.88 61.05 104 60.57 104.25 59.91L104.7 58.72H110.63L111.5 60.88C111.61 61.16 111.66 61.43 111.66 61.71C111.66 62.1 111.49 62.34 111.16 62.44C110.82 62.54 110.29 62.59 109.57 62.59V63.83H118.19V62.59C117.59 62.59 117.11 62.49 116.78 62.3C116.45 62.11 116.19 61.83 116 61.48M105.24 57.41L107.63 51.04L110.15 57.41H105.23H105.24Z" fill="white"/>
<path d="M151.36 61.6801C151.25 61.9801 151.01 62.2101 150.64 62.3701C150.27 62.5301 149.69 62.6101 148.9 62.6101V63.8501H158.06V62.6101C157.28 62.6101 156.7 62.5301 156.3 62.3601C155.91 62.1901 155.66 61.9501 155.55 61.6501C155.44 61.3401 155.38 60.9401 155.38 60.4501V48.9601C155.38 48.1701 155.55 47.6201 155.87 47.2901C156.2 46.9601 156.93 46.8001 158.05 46.8001V45.5601H151.51L145.43 58.4701L139.36 45.5601H132.68V46.8001C133.54 46.8001 134.15 46.8901 134.52 47.0601C134.89 47.2301 135.11 47.4901 135.19 47.8401C135.27 48.1801 135.31 48.7401 135.31 49.5101V59.8701C135.31 60.4401 135.29 60.8801 135.25 61.1801C135.22 61.4801 135.12 61.7401 134.96 61.9601C134.8 62.1801 134.54 62.3401 134.19 62.4401C133.84 62.5501 133.34 62.6001 132.69 62.6001V63.8401H139.45V62.6001C138.82 62.6001 138.31 62.5501 137.96 62.4501C137.6 62.3501 137.34 62.1901 137.17 61.9701C137.01 61.7601 136.9 61.4901 136.87 61.1901C136.83 60.8801 136.81 60.4401 136.81 59.8701V48.9801L143.81 63.8501H144.63L151.53 48.9801V60.4501C151.53 60.9701 151.47 61.3901 151.36 61.6901" fill="white"/>
<path d="M8.81997 70.1799C9.08997 70.1799 9.30997 70.1999 9.45997 70.2399C9.60997 70.2799 9.71998 70.3499 9.78998 70.4399C9.85998 70.5299 9.88998 70.6399 9.90998 70.7499C9.91998 70.8699 9.92998 71.0499 9.92998 71.2899V73.9999C9.92998 74.3499 9.90997 74.6599 9.87997 74.9099C9.84997 75.1699 9.77998 75.4099 9.67998 75.6499C9.54998 75.9499 9.30997 76.1999 8.97997 76.3899C8.64997 76.5799 8.27998 76.6799 7.88998 76.6799C7.52998 76.6799 7.19998 76.5899 6.88998 76.4099C6.58998 76.2299 6.36998 75.9899 6.24998 75.6899C6.17998 75.5099 6.12998 75.2999 6.09998 75.0499C6.06998 74.8099 6.04998 74.5299 6.04998 74.1999V71.0599C6.04998 70.8399 6.06998 70.6699 6.11998 70.5399C6.16998 70.4199 6.26998 70.3299 6.42998 70.2599C6.58998 70.1999 6.82997 70.1599 7.14997 70.1599V69.6499H3.34998V70.1599C3.81998 70.1599 4.11998 70.2299 4.24998 70.3599C4.37998 70.4899 4.43997 70.7199 4.43997 71.0499V74.1899C4.44997 74.4599 4.45998 74.6799 4.46998 74.8399C4.46998 75.0099 4.50998 75.1899 4.55998 75.3699C4.59998 75.5599 4.67998 75.7399 4.75998 75.9299C4.91998 76.2699 5.15997 76.5399 5.47997 76.7499C5.78997 76.9599 6.12998 77.1099 6.49998 77.1999C6.86998 77.2899 7.21997 77.3399 7.56997 77.3399C8.03997 77.3399 8.51998 77.2399 9.02998 77.0499C9.53998 76.8599 9.92997 76.5099 10.21 75.9999C10.36 75.7399 10.46 75.4799 10.49 75.2199C10.52 74.9599 10.54 74.5799 10.54 74.0699V71.2899C10.54 70.9899 10.56 70.7699 10.59 70.6299C10.62 70.4799 10.71 70.3699 10.86 70.2899C11 70.2099 11.24 70.1699 11.59 70.1699V69.6599H8.80998V70.1699L8.81997 70.1799Z" fill="white"/>
<path d="M26.56 69.6699V70.1799C26.9 70.1799 27.14 70.2199 27.29 70.2999C27.44 70.3799 27.54 70.4999 27.58 70.6499C27.62 70.7999 27.64 71.0199 27.64 71.2999V74.7399L23.34 69.6699H21.14V70.1799C21.39 70.2099 21.59 70.2599 21.73 70.3299C21.87 70.3999 21.98 70.4999 22.04 70.6099C22.1 70.7199 22.14 70.8599 22.16 71.0199C22.18 71.1799 22.18 71.4099 22.18 71.7199V75.5699C22.18 75.8799 22.16 76.1099 22.13 76.2599C22.09 76.3999 22 76.5099 21.85 76.5899C21.7 76.6699 21.46 76.7099 21.12 76.7099V77.2199H23.93V76.7099C23.57 76.7099 23.31 76.6699 23.16 76.5899C23.01 76.5099 22.9 76.3999 22.87 76.2599C22.83 76.1199 22.81 75.8899 22.81 75.5699V71.4199L27.75 77.2799H28.26V71.2999C28.26 70.9799 28.28 70.7499 28.32 70.6099C28.36 70.4699 28.45 70.3599 28.61 70.2899C28.76 70.2199 29.02 70.1799 29.38 70.1799V69.6799H26.56V69.6699Z" fill="white"/>
<path d="M38.88 70.1799C39.36 70.1799 39.66 70.2499 39.79 70.3799C39.93 70.5099 39.99 70.7399 39.99 71.0699V75.7999C39.99 76.0299 39.96 76.1999 39.91 76.3199C39.86 76.4399 39.75 76.5299 39.59 76.5899C39.42 76.6499 39.19 76.6899 38.87 76.6899V77.1999H42.7V76.6899C42.37 76.6899 42.12 76.6499 41.96 76.5899C41.8 76.5299 41.7 76.4299 41.65 76.3099C41.6 76.1899 41.57 76.0199 41.57 75.7999V71.0699C41.57 70.8399 41.59 70.6699 41.65 70.5499C41.7 70.4299 41.81 70.3399 41.97 70.2799C42.13 70.2199 42.37 70.1799 42.69 70.1799V69.6699H38.86V70.1799H38.88Z" fill="white"/>
<path d="M57.75 70.1799C58.09 70.1899 58.34 70.2199 58.51 70.2799C58.68 70.3399 58.76 70.4899 58.76 70.7299C58.76 70.8499 58.69 71.0799 58.56 71.3999L56.96 75.1599L55.23 71.1299C55.14 70.9399 55.1 70.7599 55.1 70.5899C55.1 70.4099 55.17 70.2999 55.31 70.2499C55.45 70.2099 55.7 70.1799 56.07 70.1599V69.6499H52.23V70.1599C52.52 70.1599 52.75 70.1899 52.89 70.2499C53.04 70.2999 53.16 70.3999 53.25 70.5399C53.33 70.6799 53.46 70.9399 53.62 71.3099L56.19 77.3299H56.71L59.17 71.5999C59.32 71.2499 59.44 70.9899 59.52 70.8299C59.61 70.6699 59.69 70.5399 59.78 70.4399C59.87 70.3399 59.97 70.2699 60.11 70.2299C60.24 70.1799 60.4 70.1599 60.57 70.1499V69.6499H57.78V70.1599L57.75 70.1799Z" fill="white"/>
<path d="M75.88 75.9902C75.66 76.2602 75.43 76.4302 75.2 76.4902C74.97 76.5602 74.73 76.5901 74.47 76.5901H73.87C73.6 76.5901 73.39 76.5702 73.25 76.5302C73.1 76.4802 73 76.4202 72.93 76.3302C72.87 76.2402 72.83 76.1202 72.81 75.9902C72.8 75.8502 72.79 75.6302 72.79 75.3302V73.5602H73.57C73.84 73.5602 74.03 73.5801 74.16 73.6301C74.29 73.6701 74.38 73.7602 74.44 73.8902C74.5 74.0202 74.54 74.2302 74.55 74.5102H75.06V72.0002H74.53C74.51 72.2802 74.47 72.4802 74.43 72.6102C74.38 72.7402 74.29 72.8302 74.16 72.8702C74.03 72.9102 73.83 72.9402 73.57 72.9402H72.8V70.2701H74.21C74.58 70.2701 74.86 70.2901 75.05 70.3401C75.23 70.3801 75.41 70.5002 75.56 70.6802C75.72 70.8702 75.84 71.1802 75.96 71.6102H76.47L76.38 69.6602H70.11V70.1702C70.44 70.1702 70.68 70.2101 70.84 70.2701C71 70.3401 71.1 70.4402 71.14 70.5602C71.18 70.6802 71.2 70.8502 71.2 71.0702V75.8002C71.2 76.1302 71.13 76.3602 71 76.5002C70.87 76.6302 70.57 76.7001 70.1 76.7001V77.2102H76.82L76.88 74.7302H76.37C76.27 75.3102 76.12 75.7202 75.9 75.9902" fill="white"/>
<path d="M94.34 76.5798C94.22 76.5098 94.07 76.3898 93.92 76.1998C93.76 76.0198 93.57 75.7498 93.34 75.3898C92.93 74.7598 92.64 74.3298 92.45 74.0898C92.26 73.8598 92.03 73.6598 91.76 73.4998C92.15 73.3898 92.47 73.2398 92.71 73.0598C92.95 72.8798 93.13 72.6698 93.24 72.4198C93.35 72.1898 93.4 71.9398 93.4 71.6898C93.4 71.3398 93.32 71.0298 93.17 70.7598C93.01 70.4898 92.81 70.2698 92.56 70.1198C92.31 69.9598 92.05 69.8398 91.76 69.7698C91.57 69.7198 91.32 69.6698 90.99 69.6398C90.66 69.5998 90.31 69.5798 89.94 69.5698C89.67 69.5698 89.49 69.5698 89.37 69.5698C89.23 69.5698 89.07 69.5698 88.89 69.5698C88.72 69.5698 88.57 69.5698 88.43 69.5898L86.69 69.6498V70.1698C87.16 70.1698 87.45 70.2398 87.58 70.3698C87.71 70.5098 87.77 70.7298 87.77 71.0598V75.8198C87.77 76.1498 87.71 76.3798 87.57 76.5098C87.44 76.6398 87.14 76.7198 86.68 76.7198V77.2298H90.46V76.7198C90.15 76.7198 89.91 76.6898 89.74 76.6198C89.57 76.5598 89.47 76.4598 89.43 76.3298C89.38 76.1998 89.36 76.0398 89.36 75.8298V73.8698H89.65C90.01 73.8698 90.27 73.8898 90.42 73.9298C90.57 73.9698 90.7 74.0598 90.82 74.1998C90.94 74.3398 91.11 74.5998 91.34 74.9798L91.85 75.8298C91.93 75.9598 92.04 76.1398 92.17 76.3498C92.3 76.5598 92.42 76.7398 92.53 76.8998C92.63 77.0498 92.73 77.1698 92.81 77.2498H94.82V76.7498C94.63 76.7298 94.46 76.6898 94.33 76.6298M91.13 72.9498C90.75 73.1298 90.28 73.2198 89.72 73.2198H89.37V70.1898H89.53C89.53 70.1898 89.64 70.1898 89.72 70.1898C90.31 70.1898 90.79 70.2898 91.15 70.4798C91.52 70.6798 91.71 71.0798 91.71 71.6798C91.71 72.3498 91.52 72.7798 91.14 72.9498" fill="white"/>
<path d="M108.85 73.26C108.54 73.07 108.11 72.84 107.55 72.58C107.09 72.37 106.76 72.2 106.55 72.08C106.34 71.96 106.18 71.83 106.05 71.67C105.92 71.51 105.86 71.32 105.86 71.1C105.86 70.82 105.96 70.6 106.16 70.42C106.36 70.25 106.63 70.15 106.97 70.15C107.89 70.15 108.53 70.73 108.9 71.87H109.42V69.77H108.9C108.84 70.05 108.79 70.27 108.72 70.42C108.49 70.15 108.21 69.93 107.89 69.77C107.57 69.61 107.23 69.54 106.88 69.54C106.42 69.54 106.01 69.64 105.67 69.85C105.32 70.06 105.06 70.33 104.87 70.66C104.69 70.98 104.6 71.32 104.6 71.65C104.6 71.84 104.62 72.02 104.68 72.21C104.74 72.4 104.84 72.59 104.99 72.79C105.14 73 105.36 73.21 105.66 73.43C105.95 73.65 106.32 73.86 106.78 74.08C107.08 74.21 107.34 74.34 107.57 74.46C107.8 74.58 107.98 74.7 108.12 74.8C108.25 74.9 108.35 75.02 108.43 75.16C108.5 75.3 108.53 75.45 108.53 75.63C108.53 75.94 108.42 76.21 108.18 76.42C107.95 76.63 107.65 76.73 107.28 76.73C106.85 76.73 106.48 76.61 106.19 76.38C105.89 76.15 105.66 75.87 105.49 75.54C105.33 75.22 105.2 74.86 105.1 74.5H104.59V77.08H105.1C105.14 76.85 105.21 76.59 105.33 76.32C105.61 76.66 105.94 76.92 106.33 77.1C106.72 77.27 107.12 77.36 107.53 77.36C107.94 77.36 108.29 77.28 108.59 77.13C108.9 76.98 109.15 76.79 109.36 76.55C109.56 76.31 109.71 76.06 109.81 75.8C109.91 75.54 109.97 75.29 109.97 75.06C109.97 74.65 109.86 74.29 109.65 74C109.43 73.71 109.16 73.47 108.85 73.28" fill="white"/>
<path d="M119.8 70.1799C120.28 70.1799 120.58 70.2499 120.72 70.3799C120.85 70.5099 120.92 70.7399 120.92 71.0699V75.7999C120.92 76.0299 120.9 76.1999 120.84 76.3199C120.79 76.4399 120.68 76.5299 120.52 76.5899C120.36 76.6499 120.12 76.6899 119.79 76.6899V77.1999H123.62V76.6899C123.29 76.6899 123.04 76.6499 122.89 76.5899C122.73 76.5299 122.63 76.4299 122.58 76.3099C122.53 76.1899 122.51 76.0199 122.51 75.7999V71.0699C122.51 70.8399 122.54 70.6699 122.58 70.5499C122.63 70.4299 122.74 70.3399 122.9 70.2799C123.06 70.2199 123.3 70.1799 123.62 70.1799V69.6699H119.79V70.1799H119.8Z" fill="white"/>
<path d="M133.27 71.8099H133.8C133.82 71.3399 133.91 70.9999 134.07 70.7699C134.23 70.5399 134.41 70.4099 134.62 70.3599C134.83 70.3099 135.09 70.2799 135.4 70.2799H136.2V75.7999C136.2 76.1299 136.14 76.3599 136 76.4899C135.87 76.6199 135.57 76.6999 135.11 76.6999V77.2099H138.89V76.6999C138.57 76.6999 138.34 76.6699 138.17 76.5999C138.01 76.5399 137.9 76.4399 137.86 76.3199C137.82 76.1999 137.8 76.0299 137.8 75.8099V70.2899H138.76C138.99 70.2899 139.21 70.3099 139.38 70.3699C139.56 70.4199 139.73 70.5599 139.89 70.7799C140.05 70.9999 140.15 71.3499 140.2 71.8099H140.73V69.6699H133.28V71.8099H133.27Z" fill="white"/>
<path d="M155.33 70.1801C155.6 70.1801 155.81 70.2101 155.96 70.2701C156.11 70.3301 156.19 70.4801 156.19 70.7101C156.19 70.8901 156.07 71.1701 155.83 71.5501L154.71 73.3201L153.53 71.3301C153.37 71.0601 153.27 70.8701 153.22 70.7701C153.17 70.6701 153.16 70.5801 153.16 70.5201C153.16 70.4201 153.19 70.3401 153.25 70.2901C153.32 70.2501 153.4 70.2101 153.5 70.2001C153.6 70.1901 153.74 70.1801 153.92 70.1801V69.6701H150.38V70.1801C150.63 70.1901 150.82 70.2401 150.94 70.3201C151.07 70.4001 151.21 70.5801 151.38 70.8401C151.38 70.8401 151.4 70.8601 151.41 70.8901C151.43 70.9201 151.44 70.9401 151.46 70.9601L153.35 74.1101V75.7901C153.35 76.0201 153.33 76.1901 153.28 76.3101C153.23 76.4301 153.12 76.5201 152.96 76.5801C152.8 76.6401 152.56 76.6801 152.24 76.6801V77.1901H156.04V76.6801C155.71 76.6801 155.46 76.6401 155.31 76.5601C155.15 76.4901 155.05 76.3901 155.02 76.2701C154.97 76.1501 154.95 75.9801 154.95 75.7801V74.0001L156.53 71.5501C156.79 71.1501 157 70.8601 157.13 70.6801C157.26 70.4901 157.4 70.3701 157.53 70.2901C157.67 70.2101 157.84 70.1701 158.04 70.1501V69.6401H155.3V70.1501L155.33 70.1801Z" fill="white"/>
<path d="M132.75 59.5398L132.83 59.2498H131.79L131.73 59.3498C131.34 59.9298 130.94 60.1698 130.41 60.1698C130.01 60.1698 129.61 60.0498 129.26 59.7998C128.9 59.5598 128.38 58.9698 127.74 58.0598C128.03 57.6198 128.34 57.0298 128.67 56.2598C129.1 55.2298 129.5 54.5398 129.88 54.1898C130.26 53.8398 130.7 53.5898 131.21 53.4598L131.29 53.4298L131.46 53.3898V52.2998H126.32V53.4298L126.52 53.4598H126.62C127.79 53.5998 127.94 54.0898 127.94 54.5098C127.94 54.7098 127.88 55.0898 127.62 55.7698C127.47 56.1598 127.25 56.5598 126.98 56.9898L124.02 52.8998C125.9 51.8898 126.85 50.8098 126.85 49.6898C126.85 48.8798 126.5 48.2298 125.8 47.7498C125.13 47.2898 124.39 47.0498 123.57 47.0498C122.64 47.0498 121.85 47.3698 121.23 47.9998C120.62 48.6298 120.3 49.3598 120.3 50.1598C120.3 51.0498 120.68 52.0498 121.4 53.1298C120.18 53.9698 119.32 54.6798 118.87 55.2498C118.35 55.8998 118.08 56.7098 118.08 57.6598C118.08 58.4898 118.29 59.2198 118.71 59.8598C119.13 60.4898 119.67 60.9798 120.32 61.3298C120.98 61.6798 121.67 61.8498 122.39 61.8498C123.73 61.8498 125.02 61.2098 126.24 59.9598C127.29 61.2098 128.49 61.8498 129.83 61.8498C130.53 61.8498 131.15 61.6498 131.68 61.2598C132.22 60.8598 132.58 60.3298 132.74 59.6898L132.77 59.5498M123.3 51.8998C122.48 50.6898 122.3 49.9898 122.3 49.6198C122.3 49.2098 122.41 48.8898 122.66 48.6098C122.9 48.3498 123.21 48.2298 123.61 48.2298C124.01 48.2298 124.33 48.3598 124.58 48.6298C124.83 48.9098 124.96 49.2898 124.96 49.7598C124.96 50.4898 124.4 51.1998 123.31 51.8998M122.1 54.1298C123.05 55.3998 124.19 57.0298 125.48 58.9898C124.78 59.7298 124.03 60.1198 123.26 60.1198C122.49 60.1198 121.8 59.7698 121.19 59.0998C120.56 58.4098 120.25 57.6698 120.25 56.9098C120.25 56.4198 120.43 55.9098 120.79 55.3798C121.08 54.9298 121.53 54.5098 122.11 54.1198" fill="white"/>
</svg>
